solid OpenSCAD_Model
  facet normal -0.258812 0.965928 0
    outer loop
      vertex 11.2 -12.4445 -0.5
      vertex 9.5 -12.9 0.5
      vertex 11.2 -12.4445 0.5
    endloop
  endfacet
  facet normal -0.258812 0.965928 0
    outer loop
      vertex 9.5 -12.9 0.5
      vertex 11.2 -12.4445 -0.5
      vertex 9.5 -12.9 -0.5
    endloop
  endfacet
  facet normal 0 -1 0
    outer loop
      vertex -9.5 12.9 -0.5
      vertex -3 12.9 0.5
      vertex -9.5 12.9 0.5
    endloop
  endfacet
  facet normal 0 -1 -0
    outer loop
      vertex -3 12.9 0.5
      vertex -9.5 12.9 -0.5
      vertex -3 12.9 -0.5
    endloop
  endfacet
  facet normal 0 -1 0
    outer loop
      vertex 3 12.9 -0.5
      vertex 9.5 12.9 0.5
      vertex 3 12.9 0.5
    endloop
  endfacet
  facet normal 0 -1 -0
    outer loop
      vertex 9.5 12.9 0.5
      vertex 3 12.9 -0.5
      vertex 9.5 12.9 -0.5
    endloop
  endfacet
  facet normal 0.258812 0.965928 -0
    outer loop
      vertex -9.5 -12.9 -0.5
      vertex -11.2 -12.4445 0.5
      vertex -9.5 -12.9 0.5
    endloop
  endfacet
  facet normal 0.258812 0.965928 0
    outer loop
      vertex -11.2 -12.4445 0.5
      vertex -9.5 -12.9 -0.5
      vertex -11.2 -12.4445 -0.5
    endloop
  endfacet
  facet normal -0.965928 -0.258812 0
    outer loop
      vertex 12.9 9.5 -0.5
      vertex 12.4445 11.2 0.5
      vertex 12.4445 11.2 -0.5
    endloop
  endfacet
  facet normal -0.965928 -0.258812 0
    outer loop
      vertex 12.4445 11.2 0.5
      vertex 12.9 9.5 -0.5
      vertex 12.9 9.5 0.5
    endloop
  endfacet
  facet normal 1 -0 0
    outer loop
      vertex -12.9 3 0.5
      vertex -12.9 9.5 -0.5
      vertex -12.9 9.5 0.5
    endloop
  endfacet
  facet normal 1 0 0
    outer loop
      vertex -12.9 9.5 -0.5
      vertex -12.9 3 0.5
      vertex -12.9 3 -0.5
    endloop
  endfacet
  facet normal 1 -0 0
    outer loop
      vertex -12.9 -9.5 0.5
      vertex -12.9 -3 -0.5
      vertex -12.9 -3 0.5
    endloop
  endfacet
  facet normal 1 0 0
    outer loop
      vertex -12.9 -3 -0.5
      vertex -12.9 -9.5 0.5
      vertex -12.9 -9.5 -0.5
    endloop
  endfacet
  facet normal 0.707107 0.707107 0
    outer loop
      vertex -11.2 -12.4445 0.5
      vertex -12.4445 -11.2 -0.5
      vertex -12.4445 -11.2 0.5
    endloop
  endfacet
  facet normal 0.707107 0.707107 0
    outer loop
      vertex -12.4445 -11.2 -0.5
      vertex -11.2 -12.4445 0.5
      vertex -11.2 -12.4445 -0.5
    endloop
  endfacet
  facet normal 0.258812 -0.965928 0
    outer loop
      vertex -11.2 12.4445 -0.5
      vertex -9.5 12.9 0.5
      vertex -11.2 12.4445 0.5
    endloop
  endfacet
  facet normal 0.258812 -0.965928 0
    outer loop
      vertex -9.5 12.9 0.5
      vertex -11.2 12.4445 -0.5
      vertex -9.5 12.9 -0.5
    endloop
  endfacet
  facet normal -0.707107 -0.707107 0
    outer loop
      vertex 12.4445 11.2 -0.5
      vertex 11.2 12.4445 0.5
      vertex 11.2 12.4445 -0.5
    endloop
  endfacet
  facet normal -0.707107 -0.707107 0
    outer loop
      vertex 11.2 12.4445 0.5
      vertex 12.4445 11.2 -0.5
      vertex 12.4445 11.2 0.5
    endloop
  endfacet
  facet normal -0.258812 -0.965928 0
    outer loop
      vertex 9.5 12.9 -0.5
      vertex 11.2 12.4445 0.5
      vertex 9.5 12.9 0.5
    endloop
  endfacet
  facet normal -0.258812 -0.965928 -0
    outer loop
      vertex 11.2 12.4445 0.5
      vertex 9.5 12.9 -0.5
      vertex 11.2 12.4445 -0.5
    endloop
  endfacet
  facet normal 0 1 -0
    outer loop
      vertex -3 -12.9 -0.5
      vertex -9.5 -12.9 0.5
      vertex -3 -12.9 0.5
    endloop
  endfacet
  facet normal 0 1 0
    outer loop
      vertex -9.5 -12.9 0.5
      vertex -3 -12.9 -0.5
      vertex -9.5 -12.9 -0.5
    endloop
  endfacet
  facet normal 0 1 -0
    outer loop
      vertex 9.5 -12.9 -0.5
      vertex 3 -12.9 0.5
      vertex 9.5 -12.9 0.5
    endloop
  endfacet
  facet normal 0 1 0
    outer loop
      vertex 3 -12.9 0.5
      vertex 9.5 -12.9 -0.5
      vertex 3 -12.9 -0.5
    endloop
  endfacet
  facet normal 0.965928 0.258812 0
    outer loop
      vertex -12.4445 -11.2 0.5
      vertex -12.9 -9.5 -0.5
      vertex -12.9 -9.5 0.5
    endloop
  endfacet
  facet normal 0.965928 0.258812 0
    outer loop
      vertex -12.9 -9.5 -0.5
      vertex -12.4445 -11.2 0.5
      vertex -12.4445 -11.2 -0.5
    endloop
  endfacet
  facet normal -0.965928 0.258812 0
    outer loop
      vertex 12.4445 -11.2 -0.5
      vertex 12.9 -9.5 0.5
      vertex 12.9 -9.5 -0.5
    endloop
  endfacet
  facet normal -0.965928 0.258812 0
    outer loop
      vertex 12.9 -9.5 0.5
      vertex 12.4445 -11.2 -0.5
      vertex 12.4445 -11.2 0.5
    endloop
  endfacet
  facet normal 0.707107 -0.707107 0
    outer loop
      vertex -12.4445 11.2 0.5
      vertex -11.2 12.4445 -0.5
      vertex -11.2 12.4445 0.5
    endloop
  endfacet
  facet normal 0.707107 -0.707107 0
    outer loop
      vertex -11.2 12.4445 -0.5
      vertex -12.4445 11.2 0.5
      vertex -12.4445 11.2 -0.5
    endloop
  endfacet
  facet normal -1 0 0
    outer loop
      vertex 12.9 3 -0.5
      vertex 12.9 9.5 0.5
      vertex 12.9 9.5 -0.5
    endloop
  endfacet
  facet normal -1 -0 0
    outer loop
      vertex 12.9 9.5 0.5
      vertex 12.9 3 -0.5
      vertex 12.9 3 0.5
    endloop
  endfacet
  facet normal -1 0 0
    outer loop
      vertex 12.9 -9.5 -0.5
      vertex 12.9 -3 0.5
      vertex 12.9 -3 -0.5
    endloop
  endfacet
  facet normal -1 -0 0
    outer loop
      vertex 12.9 -3 0.5
      vertex 12.9 -9.5 -0.5
      vertex 12.9 -9.5 0.5
    endloop
  endfacet
  facet normal 0.965928 -0.258812 0
    outer loop
      vertex -12.9 9.5 0.5
      vertex -12.4445 11.2 -0.5
      vertex -12.4445 11.2 0.5
    endloop
  endfacet
  facet normal 0.965928 -0.258812 0
    outer loop
      vertex -12.4445 11.2 -0.5
      vertex -12.9 9.5 0.5
      vertex -12.9 9.5 -0.5
    endloop
  endfacet
  facet normal -0.707107 0.707107 0
    outer loop
      vertex 11.2 -12.4445 -0.5
      vertex 12.4445 -11.2 0.5
      vertex 12.4445 -11.2 -0.5
    endloop
  endfacet
  facet normal -0.707107 0.707107 0
    outer loop
      vertex 12.4445 -11.2 0.5
      vertex 11.2 -12.4445 -0.5
      vertex 11.2 -12.4445 0.5
    endloop
  endfacet
  facet normal -0.923885 0.38267 0
    outer loop
      vertex -12.1 9.5 -0.5
      vertex -11.3385 11.3385 0.5
      vertex -11.3385 11.3385 -0.5
    endloop
  endfacet
  facet normal -0.923885 0.38267 0
    outer loop
      vertex -11.3385 11.3385 0.5
      vertex -12.1 9.5 -0.5
      vertex -12.1 9.5 0.5
    endloop
  endfacet
  facet normal 0.38267 -0.923885 0
    outer loop
      vertex 9.5 -12.1 -0.5
      vertex 11.3385 -11.3385 0.5
      vertex 9.5 -12.1 0.5
    endloop
  endfacet
  facet normal 0.38267 -0.923885 0
    outer loop
      vertex 11.3385 -11.3385 0.5
      vertex 9.5 -12.1 -0.5
      vertex 11.3385 -11.3385 -0.5
    endloop
  endfacet
  facet normal 0.38267 0.923885 -0
    outer loop
      vertex 11.3385 11.3385 -0.5
      vertex 9.5 12.1 0.5
      vertex 11.3385 11.3385 0.5
    endloop
  endfacet
  facet normal 0.38267 0.923885 0
    outer loop
      vertex 9.5 12.1 0.5
      vertex 11.3385 11.3385 -0.5
      vertex 9.5 12.1 -0.5
    endloop
  endfacet
  facet normal 0.923885 0.38267 0
    outer loop
      vertex 12.1 9.5 0.5
      vertex 11.3385 11.3385 -0.5
      vertex 11.3385 11.3385 0.5
    endloop
  endfacet
  facet normal 0.923885 0.38267 0
    outer loop
      vertex 11.3385 11.3385 -0.5
      vertex 12.1 9.5 0.5
      vertex 12.1 9.5 -0.5
    endloop
  endfacet
  facet normal 0 1 -0
    outer loop
      vertex 9.5 12.1 -0.5
      vertex -9.5 12.1 0.5
      vertex 9.5 12.1 0.5
    endloop
  endfacet
  facet normal 0 1 0
    outer loop
      vertex -9.5 12.1 0.5
      vertex 9.5 12.1 -0.5
      vertex -9.5 12.1 -0.5
    endloop
  endfacet
  facet normal -0.38267 -0.923885 0
    outer loop
      vertex -11.3385 -11.3385 -0.5
      vertex -9.5 -12.1 0.5
      vertex -11.3385 -11.3385 0.5
    endloop
  endfacet
  facet normal -0.38267 -0.923885 -0
    outer loop
      vertex -9.5 -12.1 0.5
      vertex -11.3385 -11.3385 -0.5
      vertex -9.5 -12.1 -0.5
    endloop
  endfacet
  facet normal 0 -1 0
    outer loop
      vertex -9.5 -12.1 -0.5
      vertex 9.5 -12.1 0.5
      vertex -9.5 -12.1 0.5
    endloop
  endfacet
  facet normal 0 -1 -0
    outer loop
      vertex 9.5 -12.1 0.5
      vertex -9.5 -12.1 -0.5
      vertex 9.5 -12.1 -0.5
    endloop
  endfacet
  facet normal -1 0 0
    outer loop
      vertex -12.1 -9.5 -0.5
      vertex -12.1 9.5 0.5
      vertex -12.1 9.5 -0.5
    endloop
  endfacet
  facet normal -1 -0 0
    outer loop
      vertex -12.1 9.5 0.5
      vertex -12.1 -9.5 -0.5
      vertex -12.1 -9.5 0.5
    endloop
  endfacet
  facet normal -0.38267 0.923885 0
    outer loop
      vertex -9.5 12.1 -0.5
      vertex -11.3385 11.3385 0.5
      vertex -9.5 12.1 0.5
    endloop
  endfacet
  facet normal -0.38267 0.923885 0
    outer loop
      vertex -11.3385 11.3385 0.5
      vertex -9.5 12.1 -0.5
      vertex -11.3385 11.3385 -0.5
    endloop
  endfacet
  facet normal -0.923885 -0.38267 0
    outer loop
      vertex -11.3385 -11.3385 -0.5
      vertex -12.1 -9.5 0.5
      vertex -12.1 -9.5 -0.5
    endloop
  endfacet
  facet normal -0.923885 -0.38267 0
    outer loop
      vertex -12.1 -9.5 0.5
      vertex -11.3385 -11.3385 -0.5
      vertex -11.3385 -11.3385 0.5
    endloop
  endfacet
  facet normal 1 -0 0
    outer loop
      vertex 12.1 -9.5 0.5
      vertex 12.1 9.5 -0.5
      vertex 12.1 9.5 0.5
    endloop
  endfacet
  facet normal 1 0 0
    outer loop
      vertex 12.1 9.5 -0.5
      vertex 12.1 -9.5 0.5
      vertex 12.1 -9.5 -0.5
    endloop
  endfacet
  facet normal 0.923885 -0.38267 0
    outer loop
      vertex 11.3385 -11.3385 0.5
      vertex 12.1 -9.5 -0.5
      vertex 12.1 -9.5 0.5
    endloop
  endfacet
  facet normal 0.923885 -0.38267 0
    outer loop
      vertex 12.1 -9.5 -0.5
      vertex 11.3385 -11.3385 0.5
      vertex 11.3385 -11.3385 -0.5
    endloop
  endfacet
  facet normal -1 0 0
    outer loop
      vertex 12.1 -3 -0.5
      vertex 12.1 3 0.5
      vertex 12.1 3 -0.5
    endloop
  endfacet
  facet normal -1 -0 0
    outer loop
      vertex 12.1 3 0.5
      vertex 12.1 -3 -0.5
      vertex 12.1 -3 0.5
    endloop
  endfacet
  facet normal 0 1 -0
    outer loop
      vertex 12.9 3 -0.5
      vertex 12.1 3 0.5
      vertex 12.9 3 0.5
    endloop
  endfacet
  facet normal 0 1 0
    outer loop
      vertex 12.1 3 0.5
      vertex 12.9 3 -0.5
      vertex 12.1 3 -0.5
    endloop
  endfacet
  facet normal 0 -1 0
    outer loop
      vertex 12.1 -3 -0.5
      vertex 12.9 -3 0.5
      vertex 12.1 -3 0.5
    endloop
  endfacet
  facet normal 0 -1 -0
    outer loop
      vertex 12.9 -3 0.5
      vertex 12.1 -3 -0.5
      vertex 12.9 -3 -0.5
    endloop
  endfacet
  facet normal 0 1 -0
    outer loop
      vertex -12.1 3 -0.5
      vertex -12.9 3 0.5
      vertex -12.1 3 0.5
    endloop
  endfacet
  facet normal 0 1 0
    outer loop
      vertex -12.9 3 0.5
      vertex -12.1 3 -0.5
      vertex -12.9 3 -0.5
    endloop
  endfacet
  facet normal 1 -0 0
    outer loop
      vertex -12.1 -3 0.5
      vertex -12.1 3 -0.5
      vertex -12.1 3 0.5
    endloop
  endfacet
  facet normal 1 0 0
    outer loop
      vertex -12.1 3 -0.5
      vertex -12.1 -3 0.5
      vertex -12.1 -3 -0.5
    endloop
  endfacet
  facet normal 0 -1 0
    outer loop
      vertex -12.9 -3 -0.5
      vertex -12.1 -3 0.5
      vertex -12.9 -3 0.5
    endloop
  endfacet
  facet normal 0 -1 -0
    outer loop
      vertex -12.1 -3 0.5
      vertex -12.9 -3 -0.5
      vertex -12.1 -3 -0.5
    endloop
  endfacet
  facet normal -1 0 0
    outer loop
      vertex -3 12.1 -0.5
      vertex -3 12.9 0.5
      vertex -3 12.9 -0.5
    endloop
  endfacet
  facet normal -1 -0 0
    outer loop
      vertex -3 12.9 0.5
      vertex -3 12.1 -0.5
      vertex -3 12.1 0.5
    endloop
  endfacet
  facet normal 1 -0 0
    outer loop
      vertex 3 12.1 0.5
      vertex 3 12.9 -0.5
      vertex 3 12.9 0.5
    endloop
  endfacet
  facet normal 1 0 0
    outer loop
      vertex 3 12.9 -0.5
      vertex 3 12.1 0.5
      vertex 3 12.1 -0.5
    endloop
  endfacet
  facet normal 0 -1 0
    outer loop
      vertex -3 12.1 -0.5
      vertex 3 12.1 0.5
      vertex -3 12.1 0.5
    endloop
  endfacet
  facet normal 0 -1 -0
    outer loop
      vertex 3 12.1 0.5
      vertex -3 12.1 -0.5
      vertex 3 12.1 -0.5
    endloop
  endfacet
  facet normal -1 0 0
    outer loop
      vertex -3 -12.9 -0.5
      vertex -3 -12.1 0.5
      vertex -3 -12.1 -0.5
    endloop
  endfacet
  facet normal -1 -0 0
    outer loop
      vertex -3 -12.1 0.5
      vertex -3 -12.9 -0.5
      vertex -3 -12.9 0.5
    endloop
  endfacet
  facet normal 0 1 -0
    outer loop
      vertex 3 -12.1 -0.5
      vertex -3 -12.1 0.5
      vertex 3 -12.1 0.5
    endloop
  endfacet
  facet normal 0 1 0
    outer loop
      vertex -3 -12.1 0.5
      vertex 3 -12.1 -0.5
      vertex -3 -12.1 -0.5
    endloop
  endfacet
  facet normal 1 -0 0
    outer loop
      vertex 3 -12.9 0.5
      vertex 3 -12.1 -0.5
      vertex 3 -12.1 0.5
    endloop
  endfacet
  facet normal 1 0 0
    outer loop
      vertex 3 -12.1 -0.5
      vertex 3 -12.9 0.5
      vertex 3 -12.9 -0.5
    endloop
  endfacet
  facet normal 1 -0 0
    outer loop
      vertex 24.5 -24.5 0.5
      vertex 24.5 24.5 -0.5
      vertex 24.5 24.5 0.5
    endloop
  endfacet
  facet normal 1 0 0
    outer loop
      vertex 24.5 24.5 -0.5
      vertex 24.5 -24.5 0.5
      vertex 24.5 -24.5 -0.5
    endloop
  endfacet
  facet normal 0 0 1
    outer loop
      vertex 3 -12.1 0.5
      vertex -3 -12.1 0.5
      vertex 3 -12.9 0.5
    endloop
  endfacet
  facet normal -0 0 1
    outer loop
      vertex 12.1 3 0.5
      vertex 12.9 -3 0.5
      vertex 12.9 3 0.5
    endloop
  endfacet
  facet normal 0 0 1
    outer loop
      vertex 12.9 -3 0.5
      vertex 12.1 3 0.5
      vertex 12.1 -3 0.5
    endloop
  endfacet
  facet normal 0 0 1
    outer loop
      vertex 12.9 3 0.5
      vertex 24.5 24.5 0.5
      vertex 12.9 9.5 0.5
    endloop
  endfacet
  facet normal 0 0 1
    outer loop
      vertex 24.5 24.5 0.5
      vertex 12.4445 11.2 0.5
      vertex 12.9 9.5 0.5
    endloop
  endfacet
  facet normal 0 0 1
    outer loop
      vertex 24.5 24.5 0.5
      vertex 11.2 12.4445 0.5
      vertex 12.4445 11.2 0.5
    endloop
  endfacet
  facet normal 0 0 1
    outer loop
      vertex 24.5 24.5 0.5
      vertex 9.5 12.9 0.5
      vertex 11.2 12.4445 0.5
    endloop
  endfacet
  facet normal 0 0 1
    outer loop
      vertex 24.5 24.5 0.5
      vertex 3 12.9 0.5
      vertex 9.5 12.9 0.5
    endloop
  endfacet
  facet normal 0 0 1
    outer loop
      vertex 3 12.9 0.5
      vertex -3 12.9 0.5
      vertex 3 12.1 0.5
    endloop
  endfacet
  facet normal 0 0 1
    outer loop
      vertex 24.5 24.5 0.5
      vertex -3 12.9 0.5
      vertex 3 12.9 0.5
    endloop
  endfacet
  facet normal -0 0 1
    outer loop
      vertex -24.5 24.5 0.5
      vertex -3 12.9 0.5
      vertex 24.5 24.5 0.5
    endloop
  endfacet
  facet normal 0 0 1
    outer loop
      vertex -3 12.9 0.5
      vertex -24.5 24.5 0.5
      vertex -9.5 12.9 0.5
    endloop
  endfacet
  facet normal 0 0 1
    outer loop
      vertex -24.5 24.5 0.5
      vertex -12.9 3 0.5
      vertex -12.9 9.5 0.5
    endloop
  endfacet
  facet normal 0 0 1
    outer loop
      vertex -12.9 3 0.5
      vertex -24.5 24.5 0.5
      vertex -12.9 -3 0.5
    endloop
  endfacet
  facet normal 0 0 1
    outer loop
      vertex -24.5 -24.5 0.5
      vertex -12.9 -3 0.5
      vertex -24.5 24.5 0.5
    endloop
  endfacet
  facet normal 0 0 1
    outer loop
      vertex -12.4445 11.2 0.5
      vertex -24.5 24.5 0.5
      vertex -12.9 9.5 0.5
    endloop
  endfacet
  facet normal 0 0 1
    outer loop
      vertex -11.2 12.4445 0.5
      vertex -24.5 24.5 0.5
      vertex -12.4445 11.2 0.5
    endloop
  endfacet
  facet normal 0 0 1
    outer loop
      vertex -9.5 12.9 0.5
      vertex -24.5 24.5 0.5
      vertex -11.2 12.4445 0.5
    endloop
  endfacet
  facet normal 0 0 1
    outer loop
      vertex 24.5 24.5 0.5
      vertex 12.9 3 0.5
      vertex 24.5 -24.5 0.5
    endloop
  endfacet
  facet normal -0 0 1
    outer loop
      vertex 12.9 -3 0.5
      vertex 24.5 -24.5 0.5
      vertex 12.9 3 0.5
    endloop
  endfacet
  facet normal -0 0 1
    outer loop
      vertex 12.9 -9.5 0.5
      vertex 24.5 -24.5 0.5
      vertex 12.9 -3 0.5
    endloop
  endfacet
  facet normal -0 0 1
    outer loop
      vertex 12.4445 -11.2 0.5
      vertex 24.5 -24.5 0.5
      vertex 12.9 -9.5 0.5
    endloop
  endfacet
  facet normal -0 0 1
    outer loop
      vertex 11.2 -12.4445 0.5
      vertex 24.5 -24.5 0.5
      vertex 12.4445 -11.2 0.5
    endloop
  endfacet
  facet normal -0 0 1
    outer loop
      vertex 9.5 -12.9 0.5
      vertex 24.5 -24.5 0.5
      vertex 11.2 -12.4445 0.5
    endloop
  endfacet
  facet normal -0 0 1
    outer loop
      vertex 3 -12.9 0.5
      vertex 24.5 -24.5 0.5
      vertex 9.5 -12.9 0.5
    endloop
  endfacet
  facet normal 0 0 1
    outer loop
      vertex -3 -12.9 0.5
      vertex 3 -12.9 0.5
      vertex -3 -12.1 0.5
    endloop
  endfacet
  facet normal 0 0 1
    outer loop
      vertex 3 -12.9 0.5
      vertex -3 -12.9 0.5
      vertex 24.5 -24.5 0.5
    endloop
  endfacet
  facet normal 0 0 1
    outer loop
      vertex -24.5 -24.5 0.5
      vertex -3 -12.9 0.5
      vertex -9.5 -12.9 0.5
    endloop
  endfacet
  facet normal 0 0 1
    outer loop
      vertex -24.5 -24.5 0.5
      vertex -9.5 -12.9 0.5
      vertex -11.2 -12.4445 0.5
    endloop
  endfacet
  facet normal 0 0 1
    outer loop
      vertex -12.9 -3 0.5
      vertex -24.5 -24.5 0.5
      vertex -12.9 -9.5 0.5
    endloop
  endfacet
  facet normal 0 0 1
    outer loop
      vertex -3 -12.9 0.5
      vertex -24.5 -24.5 0.5
      vertex 24.5 -24.5 0.5
    endloop
  endfacet
  facet normal 0 0 1
    outer loop
      vertex -12.4445 -11.2 0.5
      vertex -24.5 -24.5 0.5
      vertex -11.2 -12.4445 0.5
    endloop
  endfacet
  facet normal 0 0 1
    outer loop
      vertex -12.9 -9.5 0.5
      vertex -24.5 -24.5 0.5
      vertex -12.4445 -11.2 0.5
    endloop
  endfacet
  facet normal 0 0 1
    outer loop
      vertex 3 12.1 0.5
      vertex -3 12.9 0.5
      vertex -3 12.1 0.5
    endloop
  endfacet
  facet normal -0 0 1
    outer loop
      vertex -12.9 3 0.5
      vertex -12.1 -3 0.5
      vertex -12.1 3 0.5
    endloop
  endfacet
  facet normal 0 0 1
    outer loop
      vertex -12.1 -3 0.5
      vertex -12.9 3 0.5
      vertex -12.9 -3 0.5
    endloop
  endfacet
  facet normal 0 0 1
    outer loop
      vertex 9.5 12.1 0.5
      vertex 12.1 9.5 0.5
      vertex 11.3385 11.3385 0.5
    endloop
  endfacet
  facet normal 0 0 1
    outer loop
      vertex 12.1 9.5 0.5
      vertex 9.5 12.1 0.5
      vertex 12.1 -9.5 0.5
    endloop
  endfacet
  facet normal 0 0 1
    outer loop
      vertex 9.5 -12.1 0.5
      vertex 12.1 -9.5 0.5
      vertex 9.5 12.1 0.5
    endloop
  endfacet
  facet normal 0 0 1
    outer loop
      vertex 12.1 -9.5 0.5
      vertex 9.5 -12.1 0.5
      vertex 11.3385 -11.3385 0.5
    endloop
  endfacet
  facet normal -0 0 1
    outer loop
      vertex -9.5 12.1 0.5
      vertex 9.5 -12.1 0.5
      vertex 9.5 12.1 0.5
    endloop
  endfacet
  facet normal 0 0 1
    outer loop
      vertex -9.5 12.1 0.5
      vertex -9.5 -12.1 0.5
      vertex 9.5 -12.1 0.5
    endloop
  endfacet
  facet normal 0 0 1
    outer loop
      vertex -12.1 9.5 0.5
      vertex -9.5 12.1 0.5
      vertex -11.3385 11.3385 0.5
    endloop
  endfacet
  facet normal 0 0 1
    outer loop
      vertex -9.5 12.1 0.5
      vertex -12.1 9.5 0.5
      vertex -9.5 -12.1 0.5
    endloop
  endfacet
  facet normal -0 0 1
    outer loop
      vertex -12.1 -9.5 0.5
      vertex -9.5 -12.1 0.5
      vertex -12.1 9.5 0.5
    endloop
  endfacet
  facet normal 0 0 1
    outer loop
      vertex -9.5 -12.1 0.5
      vertex -12.1 -9.5 0.5
      vertex -11.3385 -11.3385 0.5
    endloop
  endfacet
  facet normal -0 0 -1
    outer loop
      vertex 3 -12.1 -0.5
      vertex -3 -12.9 -0.5
      vertex -3 -12.1 -0.5
    endloop
  endfacet
  facet normal 0 0 -1
    outer loop
      vertex 3 12.1 -0.5
      vertex -3 12.1 -0.5
      vertex 3 12.9 -0.5
    endloop
  endfacet
  facet normal 0 0 -1
    outer loop
      vertex 12.1 -3 -0.5
      vertex 12.9 3 -0.5
      vertex 12.9 -3 -0.5
    endloop
  endfacet
  facet normal -0 0 -1
    outer loop
      vertex 12.9 3 -0.5
      vertex 12.1 -3 -0.5
      vertex 12.1 3 -0.5
    endloop
  endfacet
  facet normal 0 0 -1
    outer loop
      vertex 12.9 -3 -0.5
      vertex 24.5 -24.5 -0.5
      vertex 12.9 -9.5 -0.5
    endloop
  endfacet
  facet normal 0 0 -1
    outer loop
      vertex 24.5 -24.5 -0.5
      vertex 12.4445 -11.2 -0.5
      vertex 12.9 -9.5 -0.5
    endloop
  endfacet
  facet normal 0 0 -1
    outer loop
      vertex 24.5 -24.5 -0.5
      vertex 11.2 -12.4445 -0.5
      vertex 12.4445 -11.2 -0.5
    endloop
  endfacet
  facet normal 0 0 -1
    outer loop
      vertex 24.5 -24.5 -0.5
      vertex 9.5 -12.9 -0.5
      vertex 11.2 -12.4445 -0.5
    endloop
  endfacet
  facet normal 0 0 -1
    outer loop
      vertex 24.5 -24.5 -0.5
      vertex 3 -12.9 -0.5
      vertex 9.5 -12.9 -0.5
    endloop
  endfacet
  facet normal 0 0 -1
    outer loop
      vertex 3 -12.9 -0.5
      vertex -3 -12.9 -0.5
      vertex 3 -12.1 -0.5
    endloop
  endfacet
  facet normal 0 0 -1
    outer loop
      vertex 24.5 -24.5 -0.5
      vertex -3 -12.9 -0.5
      vertex 3 -12.9 -0.5
    endloop
  endfacet
  facet normal 0 0 -1
    outer loop
      vertex -24.5 -24.5 -0.5
      vertex -3 -12.9 -0.5
      vertex 24.5 -24.5 -0.5
    endloop
  endfacet
  facet normal -0 0 -1
    outer loop
      vertex -3 -12.9 -0.5
      vertex -24.5 -24.5 -0.5
      vertex -9.5 -12.9 -0.5
    endloop
  endfacet
  facet normal 0 0 -1
    outer loop
      vertex -24.5 -24.5 -0.5
      vertex -12.9 -3 -0.5
      vertex -12.9 -9.5 -0.5
    endloop
  endfacet
  facet normal -0 0 -1
    outer loop
      vertex -12.9 -3 -0.5
      vertex -24.5 -24.5 -0.5
      vertex -12.9 3 -0.5
    endloop
  endfacet
  facet normal 0 0 -1
    outer loop
      vertex -24.5 24.5 -0.5
      vertex -12.9 3 -0.5
      vertex -24.5 -24.5 -0.5
    endloop
  endfacet
  facet normal -0 0 -1
    outer loop
      vertex -12.4445 -11.2 -0.5
      vertex -24.5 -24.5 -0.5
      vertex -12.9 -9.5 -0.5
    endloop
  endfacet
  facet normal -0 0 -1
    outer loop
      vertex -11.2 -12.4445 -0.5
      vertex -24.5 -24.5 -0.5
      vertex -12.4445 -11.2 -0.5
    endloop
  endfacet
  facet normal -0 0 -1
    outer loop
      vertex -9.5 -12.9 -0.5
      vertex -24.5 -24.5 -0.5
      vertex -11.2 -12.4445 -0.5
    endloop
  endfacet
  facet normal 0 0 -1
    outer loop
      vertex 24.5 -24.5 -0.5
      vertex 12.9 -3 -0.5
      vertex 24.5 24.5 -0.5
    endloop
  endfacet
  facet normal 0 0 -1
    outer loop
      vertex 12.9 3 -0.5
      vertex 24.5 24.5 -0.5
      vertex 12.9 -3 -0.5
    endloop
  endfacet
  facet normal 0 0 -1
    outer loop
      vertex 12.9 9.5 -0.5
      vertex 24.5 24.5 -0.5
      vertex 12.9 3 -0.5
    endloop
  endfacet
  facet normal 0 0 -1
    outer loop
      vertex 12.4445 11.2 -0.5
      vertex 24.5 24.5 -0.5
      vertex 12.9 9.5 -0.5
    endloop
  endfacet
  facet normal 0 0 -1
    outer loop
      vertex 11.2 12.4445 -0.5
      vertex 24.5 24.5 -0.5
      vertex 12.4445 11.2 -0.5
    endloop
  endfacet
  facet normal 0 0 -1
    outer loop
      vertex 9.5 12.9 -0.5
      vertex 24.5 24.5 -0.5
      vertex 11.2 12.4445 -0.5
    endloop
  endfacet
  facet normal 0 0 -1
    outer loop
      vertex 3 12.9 -0.5
      vertex 24.5 24.5 -0.5
      vertex 9.5 12.9 -0.5
    endloop
  endfacet
  facet normal 0 0 -1
    outer loop
      vertex -3 12.9 -0.5
      vertex 3 12.9 -0.5
      vertex -3 12.1 -0.5
    endloop
  endfacet
  facet normal 0 0 -1
    outer loop
      vertex 3 12.9 -0.5
      vertex -3 12.9 -0.5
      vertex 24.5 24.5 -0.5
    endloop
  endfacet
  facet normal 0 0 -1
    outer loop
      vertex -24.5 24.5 -0.5
      vertex -3 12.9 -0.5
      vertex -9.5 12.9 -0.5
    endloop
  endfacet
  facet normal 0 0 -1
    outer loop
      vertex -24.5 24.5 -0.5
      vertex -9.5 12.9 -0.5
      vertex -11.2 12.4445 -0.5
    endloop
  endfacet
  facet normal 0 0 -1
    outer loop
      vertex -12.9 3 -0.5
      vertex -24.5 24.5 -0.5
      vertex -12.9 9.5 -0.5
    endloop
  endfacet
  facet normal 0 0 -1
    outer loop
      vertex -3 12.9 -0.5
      vertex -24.5 24.5 -0.5
      vertex 24.5 24.5 -0.5
    endloop
  endfacet
  facet normal 0 0 -1
    outer loop
      vertex -12.4445 11.2 -0.5
      vertex -24.5 24.5 -0.5
      vertex -11.2 12.4445 -0.5
    endloop
  endfacet
  facet normal 0 0 -1
    outer loop
      vertex -12.9 9.5 -0.5
      vertex -24.5 24.5 -0.5
      vertex -12.4445 11.2 -0.5
    endloop
  endfacet
  facet normal 0 0 -1
    outer loop
      vertex -12.9 -3 -0.5
      vertex -12.1 3 -0.5
      vertex -12.1 -3 -0.5
    endloop
  endfacet
  facet normal -0 0 -1
    outer loop
      vertex -12.1 3 -0.5
      vertex -12.9 -3 -0.5
      vertex -12.9 3 -0.5
    endloop
  endfacet
  facet normal 0 0 -1
    outer loop
      vertex 9.5 -12.1 -0.5
      vertex 12.1 -9.5 -0.5
      vertex 11.3385 -11.3385 -0.5
    endloop
  endfacet
  facet normal -0 0 -1
    outer loop
      vertex 12.1 -9.5 -0.5
      vertex 9.5 -12.1 -0.5
      vertex 12.1 9.5 -0.5
    endloop
  endfacet
  facet normal 0 0 -1
    outer loop
      vertex 9.5 12.1 -0.5
      vertex 12.1 9.5 -0.5
      vertex 9.5 -12.1 -0.5
    endloop
  endfacet
  facet normal 0 0 -1
    outer loop
      vertex 12.1 9.5 -0.5
      vertex 9.5 12.1 -0.5
      vertex 11.3385 11.3385 -0.5
    endloop
  endfacet
  facet normal 0 0 -1
    outer loop
      vertex -9.5 -12.1 -0.5
      vertex 9.5 12.1 -0.5
      vertex 9.5 -12.1 -0.5
    endloop
  endfacet
  facet normal 0 0 -1
    outer loop
      vertex -9.5 -12.1 -0.5
      vertex -9.5 12.1 -0.5
      vertex 9.5 12.1 -0.5
    endloop
  endfacet
  facet normal 0 0 -1
    outer loop
      vertex -12.1 -9.5 -0.5
      vertex -9.5 -12.1 -0.5
      vertex -11.3385 -11.3385 -0.5
    endloop
  endfacet
  facet normal 0 0 -1
    outer loop
      vertex -9.5 -12.1 -0.5
      vertex -12.1 -9.5 -0.5
      vertex -9.5 12.1 -0.5
    endloop
  endfacet
  facet normal 0 0 -1
    outer loop
      vertex -12.1 9.5 -0.5
      vertex -9.5 12.1 -0.5
      vertex -12.1 -9.5 -0.5
    endloop
  endfacet
  facet normal 0 0 -1
    outer loop
      vertex -9.5 12.1 -0.5
      vertex -12.1 9.5 -0.5
      vertex -11.3385 11.3385 -0.5
    endloop
  endfacet
  facet normal -1 0 0
    outer loop
      vertex -24.5 -24.5 -0.5
      vertex -24.5 24.5 0.5
      vertex -24.5 24.5 -0.5
    endloop
  endfacet
  facet normal -1 -0 0
    outer loop
      vertex -24.5 24.5 0.5
      vertex -24.5 -24.5 -0.5
      vertex -24.5 -24.5 0.5
    endloop
  endfacet
  facet normal 0 1 -0
    outer loop
      vertex 24.5 24.5 -0.5
      vertex -24.5 24.5 0.5
      vertex 24.5 24.5 0.5
    endloop
  endfacet
  facet normal 0 1 0
    outer loop
      vertex -24.5 24.5 0.5
      vertex 24.5 24.5 -0.5
      vertex -24.5 24.5 -0.5
    endloop
  endfacet
  facet normal 0 -1 0
    outer loop
      vertex -24.5 -24.5 -0.5
      vertex 24.5 -24.5 0.5
      vertex -24.5 -24.5 0.5
    endloop
  endfacet
  facet normal 0 -1 -0
    outer loop
      vertex 24.5 -24.5 0.5
      vertex -24.5 -24.5 -0.5
      vertex 24.5 -24.5 -0.5
    endloop
  endfacet
endsolid OpenSCAD_Model
